HIERARCHY
ROOT Hips
{
  OFFSET 35.5189 99.895 15.0865
  CHANNELS 6 Xposition Yposition Zposition Zrotation Xrotation Yrotation
  JOINT ToSpine
  {
    OFFSET -0.0105055 1.38907 -7.13956
    CHANNELS 3 Zrotation Xrotation Yrotation
    JOINT Spine
    {
      OFFSET 0.0105055 10 1
      CHANNELS 3 Zrotation Xrotation Yrotation
      JOINT Spine1
      {
        OFFSET 0 12 1.60637
        CHANNELS 3 Zrotation Xrotation Yrotation
        JOINT Neck
        {
          OFFSET 0 27 2.26658
          CHANNELS 3 Zrotation Xrotation Yrotation
          JOINT Head
          {
            OFFSET 0 9 2.12705
            CHANNELS 3 Zrotation Xrotation Yrotation
            End Site
            {
              OFFSET 0 11 2
            }
          }
        }
        JOINT LeftShoulder
        {
          OFFSET 8 19.6109 2.86452
          CHANNELS 3 Zrotation Xrotation Yrotation
          JOINT LeftArm
          {
            OFFSET 12 1 0.681055
            CHANNELS 3 Zrotation Xrotation Yrotation
            JOINT LeftForeArm
            {
              OFFSET 19 0 -1.52608
              CHANNELS 3 Zrotation Xrotation Yrotation
              JOINT LeftHand
              {
                OFFSET 23 0 0
                CHANNELS 3 Zrotation Xrotation Yrotation
                End Site
                {
                  OFFSET 10 0 0
                }
              }
            }
          }
        }
        JOINT RightShoulder
        {
          OFFSET -8 19.6109 2.86452
          CHANNELS 3 Zrotation Xrotation Yrotation
          JOINT RightArm
          {
            OFFSET -12 1 0.681055
            CHANNELS 3 Zrotation Xrotation Yrotation
            JOINT RightForeArm
            {
              OFFSET -19 0 -1.52608
              CHANNELS 3 Zrotation Xrotation Yrotation
              JOINT RightHand
              {
                OFFSET -23 0 0
                CHANNELS 3 Zrotation Xrotation Yrotation
                End Site
                {
                  OFFSET -10 0 0
                }
              }
            }
          }
        }
      }
    }
  }
  JOINT LeftUpLeg
  {
    OFFSET 9 -7.17245 0
    CHANNELS 3 Zrotation Xrotation Yrotation
    JOINT LeftLeg
    {
      OFFSET 0 -44.1113 0
      CHANNELS 3 Zrotation Xrotation Yrotation
      JOINT LeftFoot
      {
        OFFSET 0 -36.1829 0
        CHANNELS 3 Zrotation Xrotation Yrotation
        JOINT LeftToeBase
        {
          OFFSET 0 -4.84184 13
          CHANNELS 3 Zrotation Xrotation Yrotation
          End Site
          {
            OFFSET 0 1 6
          }
        }
      }
    }
  }
  JOINT RightUpLeg
  {
    OFFSET -9 -7.17245 0
    CHANNELS 3 Zrotation Xrotation Yrotation
    JOINT RightLeg
    {
      OFFSET 0 -44.0551 0
      CHANNELS 3 Zrotation Xrotation Yrotation
      JOINT RightFoot
      {
        OFFSET 0 -36.1469 0
        CHANNELS 3 Zrotation Xrotation Yrotation
        JOINT RightToeBase
        {
          OFFSET 0 -4.92256 13
          CHANNELS 3 Zrotation Xrotation Yrotation
          End Site
          {
            OFFSET 0 1 6
          }
        }
      }
    }
  }
}
MOTION
Frames:	12
Frame Time:	0.0333333
31.7474 99.6304 13.5138 -0.758155 6.66312 2.23483 0 0 0 6.89912 4.81953 0.801688 -11.882 -10.7231 2.08712 15.1766 -39.4209 2.6707 -4.0367 17.2672 2.86933 34.0704 0.81335 7.25838 -20.3499 -48.6697 -96.3326 160.439 -78.7704 155.793 -26.2091 -3.02473 12.9421 -32.262 1.96006 -13.3063 18.3616 -48.0328 72.1077 -26.7466 -79.5543 -26.2019 22.1948 -1.85139 -9.41737 5.94731 -9.41199 8.50602 -1.23306 7.33016 -4.18529 -6.72066 -6.86909 -0.403702 0.882516 3.67994 -4.16165 1.08817 -5.62633 -5.31724 -0.0606764 0.664018 -10.2308 2.47387 -1.62821 0.0350017 1.69461 -5.82838 -1.93557 
31.6699 99.6523 13.0709 -0.782155 7.10362 2.02203 0 0 0 6.66759 5.24626 0.876887 -11.2356 -11.1296 2.10406 15.0988 -36.5 2.20342 -4.27565 15.4313 2.93903 33.3387 0.523077 6.00126 -24.3744 -48.6281 -97.5234 150.794 -81.8612 145.686 -26.5758 -3.01569 12.7196 -32.191 2.05614 -13.8 24.6413 -48.6868 76.1471 -21.3499 -76.6021 -20.4275 21.8705 -1.69194 -8.74077 5.96727 -10.0597 8.46244 -1.18847 7.10597 -3.67885 -6.79202 -6.44486 -0.383187 0.806862 3.58669 -3.86708 1.03532 -6.18059 -5.45515 0.180544 0.207415 -10.0514 2.98453 -1.28866 0.0337313 1.6932 -5.79301 -2.02842 
31.5549 99.6596 12.6505 -0.71221 7.44269 2.18459 0 0 0 6.24207 5.39045 0.636799 -10.5741 -11.0708 1.82038 15.5124 -32.5392 1.69351 -5.08821 12.7174 3.24706 31.7635 0.510127 6.12145 -27.4408 -48.3975 -99.5165 137.95 -83.7694 132.696 -26.2744 -2.92862 12.5 -31.8224 1.99837 -13.6709 31.9924 -49.4693 80.2079 -15.8451 -72.5943 -14.5166 21.7115 -1.5449 -8.04374 5.96581 -10.6439 8.48091 -1.34487 6.87631 -3.67417 -6.34018 -6.00306 -0.332596 0.91517 3.68151 -4.28245 0.928159 -6.762 -5.54016 0.210197 0.17233 -10.2895 3.59477 -1.28815 0.0405258 1.61608 -5.54836 -1.81741 
31.4535 99.6746 12.2811 -0.658372 7.54924 2.27955 0 0 0 5.6333 6.17768 0.687458 -9.29928 -11.6127 1.75215 13.6999 -29.0208 0.805229 -3.94538 10.3894 2.46371 28.6178 0.485117 6.40441 -31.7427 -47.3145 -103.622 97.8099 -85.3655 92.5578 -26.0527 -2.76211 11.8998 -30.8608 1.78059 -13.0556 37.0478 -50.0793 82.5934 -5.38851 -69.3033 -3.91801 21.4971 -1.46776 -7.72023 5.93201 -10.8699 8.46634 -1.39463 6.51471 -3.48445 -6.34255 -5.65887 -0.313811 1.07659 3.94035 -4.90488 0.802179 -7.09442 -5.70345 0.397734 0.116943 -10.4046 3.27087 -1.03336 0.0293009 1.8405 -6.32399 -2.24931 
31.3641 99.6556 11.8902 -0.642287 7.89928 2.27896 0 0 0 5.26097 6.08948 0.692067 -8.4475 -11.2003 1.72141 13.5421 -25.7614 0.141841 -4.30319 8.48557 2.32802 26.1495 0.408827 6.32759 -37.7241 -45.7454 -107.532 47.2745 -83.6004 42.0644 -25.8964 -2.6322 11.4115 -28.481 1.54599 -12.5251 42.1087 -50.8618 85.8965 7.13089 -65.1966 9.27905 21.3055 -1.40882 -7.48123 5.95229 -11.5262 8.50505 -1.49089 6.49695 -3.39749 -6.2158 -5.44197 -0.29556 1.01992 4.35849 -4.73525 0.748189 -7.68135 -5.70767 0.525826 -0.0105112 -10.39 3.28238 -0.601051 0.0175209 1.92817 -6.72727 -2.06198 
31.25 99.6721 11.493 -0.553821 7.70593 2.40304 0 0 0 4.9801 6.74413 0.367092 -8.17836 -10.8178 1.41449 15.2272 -23.8647 -0.313994 -5.45297 8.19088 2.59749 23.4324 0.301626 5.98622 -42.3831 -44.0845 -110.192 6.85692 -80.3129 2.10572 -24.9167 -2.3517 10.6107 -25.3367 0.556703 -7.63963 34.4088 -54.2723 77.1799 17.457 -65.6525 19.1797 21.0957 -1.38207 -7.40516 5.91875 -11.4425 8.48106 -1.53359 6.10005 -3.53453 -6.08735 -4.88499 -0.260508 1.01866 4.04753 -4.70484 0.709319 -7.76378 -5.76129 0.597377 1.55063e-013 -10.4785 2.70517 -0.255321 0.00564353 2.03567 -7.12852 -2.18145 
31.1505 99.722 11.0605 -0.570198 7.59643 2.48937 0 0 0 4.18234 7.41957 0.660467 -5.98272 -10.6692 1.52032 11.9888 -20.8024 -0.965832 -3.65882 7.10065 1.51013 19.4081 0.128214 5.00359 -47.5242 -41.6916 -110.915 -25.6108 -73.1524 -30.0314 -23.6059 -2.04839 9.78486 -25.5577 0.989448 -10.4485 49.1891 -51.2798 87.6739 22.0841 -56.5662 25.1283 20.4117 -1.0923 -6.06752 6.06228 -11.3103 8.69052 -1.86365 5.38362 -4.16843 -5.72736 -4.05484 -0.202471 0.810902 3.72394 -3.89856 0.732367 -7.9551 -5.8486 0.759723 -0.00145653 -10.6465 2.24593 -0.102795 0.00386238 1.97447 -6.82946 -2.37731 
31.0537 99.7358 10.6128 -0.523702 7.66995 2.55176 0 0 0 4.15951 8.12475 0.637399 -5.66066 -11.2232 1.46934 11.9089 -15.5682 -1.57538 -4.00742 4.45462 1.47794 16.9909 -0.0307366 3.00228 -50.4888 -39.2726 -109.754 -33.658 -65.4446 -37.9209 -23.1608 -1.85593 9.03058 -23.3232 0.3091 -6.17109 44.3922 -52.4116 79.1542 30.5291 -52.4097 35.4543 19.5305 -0.9623 -5.57685 6.11062 -11.6129 8.77255 -2.00459 5.15308 -4.00918 -5.89573 -3.71143 -0.191321 0.861284 4.08619 -4.12453 0.723567 -8.33959 -5.82285 0.844121 -0.00455109 -10.6306 2.00943 0.214473 0.00250331 1.94737 -6.51727 -3.0939 
30.9965 99.7585 10.1467 -0.424541 7.84168 2.74661 0 0 0 4.30568 8.31536 0.694622 -5.42141 -10.7667 1.5266 11.3754 -11.9426 -2.08362 -3.97729 2.97222 1.20125 14.878 -0.139966 0.50119 -52.4447 -37.2342 -106.844 -38.6363 -57.0448 -43.5999 -23.1879 -1.66499 8.13048 -22.4194 0.433206 -7.36027 45.6153 -48.2759 76.151 36.2619 -46.38 45.4738 18.0157 -0.721089 -4.55342 6.2216 -12.0911 9.03341 -2.55045 5.09968 -4.55039 -5.39484 -3.33063 -0.157221 0.722487 4.24093 -3.63135 0.559937 -8.88337 -5.95954 0.897255 0.204615 -11.0121 2.38634 -0.102771 0.00160389 1.52477 -4.95661 -2.48491 
30.9412 99.813 9.65228 -0.395353 7.8597 2.96287 0 0 0 4.41541 8.80034 0.476378 -4.91302 -9.84628 1.29783 10.9836 -10.6868 -2.04765 -3.97716 3.09399 1.28104 11.8532 -0.0730004 -0.364112 -50.3263 -34.9904 -102.022 -43.5119 -49.9337 -51.1155 -25.0312 -1.6202 7.28896 -20.322 0.219221 -5.80752 46.0927 -47.4627 72.8866 38.9697 -39.652 51.7312 17.5725 -0.593654 -3.84552 6.25433 -12.7031 8.95745 -2.63206 5.54774 -4.43947 -4.92281 -3.08589 -0.132667 0.941252 3.44735 -4.35672 0.439949 -9.61126 -6.10186 1.08707 0.917748 -11.4094 1.46012 -0.174702 0.00104433 1.20678 -4.06013 -1.43016 
30.8991 99.7872 9.1823 -0.405043 8.04159 3.14606 0 0 0 5.0305 9.40309 0.27768 -5.15228 -9.1028 1.18524 11.1704 -10.0849 -2.27103 -4.78505 4.01754 1.39586 8.71168 0.0429672 -1.76546 -47.461 -32.8968 -95.7405 -51.7438 -43.662 -61.4366 -21.091 -1.4221 7.62735 -15.5646 0.0711335 -5.14166 45.9244 -45.623 70.9216 39.3986 -31.6388 57.4361 16.2662 -0.591391 -4.13446 6.3433 -13.5317 8.96337 -2.77123 6.25174 -4.90298 -5.07878 -3.37379 -0.149861 0.877287 4.07623 -4.18933 0.392119 -10.3765 -6.14644 1.19636 1.40341 -11.3998 1.1096 0.0366469 0.000704767 1.28452 -4.16246 -1.98351 
30.9279 99.762 8.65411 -0.351186 8.32264 3.07593 0 0 0 4.66813 10.0745 0.156401 -3.57314 -8.24762 0.908051 9.03005 -9.55243 -1.38774 -3.20829 5.13844 1.44156 3.88105 0.309833 -2.62124 -43.3394 -30.8097 -89.0415 -53.3164 -35.1535 -66.7851 -19.8315 -1.28392 7.31806 -10.0724 0.0174304 -4.85674 41.7542 -42.9706 68.5831 41.1093 -26.4601 62.9516 15.8839 -0.557219 -3.99115 6.30848 -14.4396 8.89652 -2.92615 6.93611 -4.93601 -4.55544 -3.41425 -0.135053 0.791995 3.305 -3.77292 0.0767157 -11.3836 -6.49406 1.60252 2.15296 -10.9991 0.368967 0.0617407 0.000465364 1.40594 -4.45185 -2.5484 
